<svg width="576" height="144" xmlns="http://www.w3.org/2000/svg" xmlns:xlink="http://www.w3.org/1999/xlink" overflow="hidden"><defs><clipPath id="clip0"><rect x="0" y="0" width="576" height="144"/></clipPath><clipPath id="clip1"><rect x="48" y="33" width="75" height="75"/></clipPath><clipPath id="clip2"><rect x="48" y="33" width="75" height="75"/></clipPath><clipPath id="clip3"><rect x="48" y="33" width="75" height="75"/></clipPath><linearGradient x1="47.324" y1="55.8648" x2="118.979" y2="89.2772" gradientUnits="userSpaceOnUse" spreadMethod="pad" id="fill4"><stop offset="0" stop-color="#FFFFFF" stop-opacity="0.2"/><stop offset="1" stop-color="#FFFFFF" stop-opacity="0"/></linearGradient></defs><g clip-path="url(#clip0)"><rect x="0" y="0" width="576" height="144" fill="#FFFFFF" fill-opacity="0"/><path d="M309.873 64.5203C307.5 64.5203 305.459 64.9392 303.752 65.7771 302.045 66.615 300.638 67.7993 299.533 69.3301 298.427 70.8608 297.606 72.6736 297.07 74.7683 296.533 76.863 296.265 79.1511 296.265 81.6326 296.265 84.0173 296.484 86.2571 296.923 88.3518 297.363 90.4465 298.094 92.2754 299.118 93.8384 300.143 95.4014 301.516 96.6421 303.24 97.5605 304.963 98.479 307.109 98.9382 309.678 98.9382 312.02 98.9382 314.052 98.5193 315.776 97.6814 317.499 96.8435 318.913 95.6672 320.019 94.1526 321.124 92.6379 321.937 90.8332 322.458 88.7385 322.978 86.6438 323.238 84.3396 323.238 81.8259 323.238 79.4734 323.019 77.2497 322.58 75.155 322.141 73.0603 321.417 71.2234 320.409 69.6443 319.401 68.0652 318.035 66.8164 316.312 65.8979 314.588 64.9795 312.442 64.5203 309.873 64.5203ZM466.618 64.0852C464.64 64.0852 462.905 64.4558 461.414 65.197 459.922 65.9382 458.674 66.9211 457.669 68.1457 456.663 69.3704 455.885 70.7964 455.334 72.4238 454.783 74.0513 454.475 75.7512 454.41 77.5237L478.145 77.5237C478.241 73.3342 477.309 70.0471 475.348 67.6623 473.386 65.2776 470.477 64.0852 466.618 64.0852ZM217.618 64.0852C215.64 64.0852 213.905 64.4558 212.414 65.197 210.922 65.9382 209.674 66.9211 208.669 68.1457 207.663 69.3704 206.885 70.7964 206.334 72.4238 205.783 74.0513 205.475 75.7512 205.41 77.5237L229.145 77.5237C229.241 73.3342 228.309 70.0471 226.348 67.6623 224.386 65.2776 221.477 64.0852 217.618 64.0852ZM267.301 57.8977C268.687 57.8977 270.033 58.0266 271.338 58.2844 272.643 58.5422 273.843 58.8806 274.939 59.2996 276.035 59.7185 277.01 60.2019 277.864 60.7497 278.718 61.2976 279.338 61.7649 279.725 62.1516 280.111 62.5383 280.377 62.8445 280.522 63.0701 280.667 63.2956 280.788 63.5615 280.885 63.8677 280.982 64.1738 281.046 64.5203 281.078 64.907 281.11 65.2937 281.127 65.7771 281.127 66.3572 281.127 67.614 280.982 68.4922 280.692 68.9917 280.401 69.4912 280.047 69.741 279.628 69.741 279.145 69.741 278.589 69.4751 277.96 68.9434 277.332 68.4116 276.534 67.8235 275.568 67.1789 274.601 66.5344 273.432 65.9463 272.063 65.4145 270.693 64.8828 269.074 64.6169 267.205 64.6169 263.37 64.6169 260.429 66.0913 258.383 69.04 256.336 71.9888 255.313 76.2668 255.313 81.8743 255.313 84.678 255.579 87.1352 256.111 89.2461 256.642 91.3569 257.424 93.1213 258.455 94.5393 259.486 95.9573 260.751 97.0127 262.25 97.7056 263.748 98.3984 265.465 98.7449 267.398 98.7449 269.235 98.7449 270.846 98.4548 272.232 97.8747 273.618 97.2947 274.818 96.6582 275.833 95.9653 276.849 95.2725 277.703 94.644 278.395 94.0801 279.088 93.5161 279.628 93.2341 280.015 93.2341 280.24 93.2341 280.434 93.2986 280.595 93.4275 280.756 93.5564 280.893 93.7739 281.006 94.0801 281.119 94.3862 281.199 94.7729 281.247 95.2402 281.296 95.7075 281.32 96.2634 281.32 96.908 281.32 97.4558 281.304 97.9311 281.272 98.334 281.239 98.7368 281.183 99.0752 281.102 99.3491 281.022 99.623 280.925 99.8647 280.812 100.074 280.7 100.284 280.442 100.59 280.039 100.993 279.636 101.396 278.951 101.895 277.984 102.491 277.018 103.087 275.93 103.619 274.722 104.086 273.513 104.554 272.2 104.932 270.782 105.222 269.364 105.512 267.898 105.657 266.383 105.657 263.257 105.657 260.486 105.142 258.068 104.111 255.652 103.079 253.629 101.573 252.002 99.5908 250.374 97.6089 249.134 95.1758 248.28 92.2915 247.426 89.4072 246.999 86.0798 246.999 82.3093 246.999 78.0232 247.522 74.3413 248.57 71.2637 249.617 68.186 251.051 65.6643 252.872 63.6985 254.693 61.7327 256.836 60.2744 259.301 59.3237 261.767 58.373 264.433 57.8977 267.301 57.8977ZM467.026 57.8494C470.443 57.8494 473.351 58.3972 475.752 59.4929 478.153 60.5886 480.127 62.063 481.673 63.916 483.22 65.769 484.356 67.9443 485.081 70.4419 485.807 72.9394 486.169 75.6062 486.169 78.4421L486.169 79.8923C486.169 81.1492 485.853 82.0434 485.222 82.5752 484.591 83.1069 483.871 83.3728 483.061 83.3728L454.41 83.3728C454.41 85.7898 454.653 87.9651 455.138 89.8987 455.624 91.8323 456.434 93.4919 457.567 94.8777 458.7 96.2634 460.174 97.3269 461.987 98.0681 463.801 98.8093 466.019 99.1799 468.642 99.1799 470.715 99.1799 472.561 99.0107 474.18 98.6724 475.799 98.334 477.199 97.9553 478.381 97.5364 479.564 97.1174 480.535 96.7388 481.296 96.4004 482.057 96.062 482.632 95.8928 483.021 95.8928 483.248 95.8928 483.45 95.9492 483.628 96.062 483.806 96.1748 483.943 96.344 484.041 96.5696 484.138 96.7952 484.211 97.1094 484.259 97.5122 484.308 97.915 484.332 98.4065 484.332 98.9866 484.332 99.4055 484.316 99.7681 484.284 100.074 484.252 100.38 484.211 100.654 484.163 100.896 484.115 101.138 484.034 101.355 483.921 101.549 483.808 101.742 483.663 101.927 483.486 102.104 483.309 102.282 482.785 102.572 481.915 102.975 481.045 103.377 479.917 103.772 478.531 104.159 477.146 104.546 475.542 104.892 473.722 105.198 471.901 105.504 469.959 105.657 467.897 105.657 464.319 105.657 461.185 105.158 458.495 104.159 455.804 103.16 453.54 101.677 451.703 99.7117 449.866 97.7458 448.48 95.2805 447.546 92.3157 446.611 89.3508 446.144 85.9026 446.144 81.9709 446.144 78.2327 446.627 74.873 447.594 71.8921 448.561 68.9111 449.954 66.3813 451.775 64.3027 453.596 62.2241 455.796 60.6289 458.374 59.5171 460.952 58.4053 463.836 57.8494 467.026 57.8494ZM310.187 57.8494C313.764 57.8494 316.882 58.3811 319.54 59.4446 322.199 60.508 324.415 62.0549 326.187 64.0852 327.96 66.1155 329.289 68.5808 330.175 71.4812 331.061 74.3816 331.505 77.6526 331.505 81.2942 331.505 84.8391 331.037 88.102 330.103 91.083 329.168 94.064 327.774 96.634 325.921 98.7932 324.068 100.952 321.748 102.636 318.96 103.845 316.173 105.053 312.942 105.657 309.268 105.657 305.691 105.657 302.573 105.126 299.914 104.062 297.256 102.999 295.04 101.452 293.268 99.4216 291.495 97.3913 290.174 94.926 289.304 92.0256 288.434 89.1252 287.999 85.8381 287.999 82.1643 287.999 78.6194 288.458 75.3564 289.376 72.3755 290.295 69.3945 291.681 66.8245 293.534 64.6653 295.387 62.5061 297.699 60.8303 300.47 59.6379 303.242 58.4455 306.481 57.8494 310.187 57.8494ZM218.027 57.8494C221.443 57.8494 224.351 58.3972 226.752 59.4929 229.153 60.5886 231.127 62.063 232.673 63.916 234.22 65.769 235.356 67.9443 236.081 70.4419 236.807 72.9394 237.169 75.6062 237.169 78.4421L237.169 79.8923C237.169 81.1492 236.854 82.0434 236.222 82.5752 235.591 83.1069 234.871 83.3728 234.061 83.3728L205.41 83.3728C205.41 85.7898 205.653 87.9651 206.138 89.8987 206.624 91.8323 207.434 93.4919 208.567 94.8777 209.7 96.2634 211.174 97.3269 212.987 98.0681 214.801 98.8093 217.019 99.1799 219.642 99.1799 221.715 99.1799 223.561 99.0107 225.18 98.6724 226.799 98.334 228.199 97.9553 229.381 97.5364 230.564 97.1174 231.535 96.7388 232.296 96.4004 233.057 96.062 233.632 95.8928 234.021 95.8928 234.248 95.8928 234.45 95.9492 234.628 96.062 234.806 96.1748 234.943 96.344 235.041 96.5696 235.138 96.7952 235.211 97.1094 235.259 97.5122 235.308 97.915 235.332 98.4065 235.332 98.9866 235.332 99.4055 235.316 99.7681 235.284 100.074 235.252 100.38 235.211 100.654 235.163 100.896 235.115 101.138 235.034 101.355 234.921 101.549 234.809 101.742 234.663 101.927 234.486 102.104 234.309 102.282 233.785 102.572 232.915 102.975 232.045 103.377 230.917 103.772 229.531 104.159 228.146 104.546 226.542 104.892 224.722 105.198 222.901 105.504 220.959 105.657 218.897 105.657 215.319 105.657 212.185 105.158 209.495 104.159 206.804 103.16 204.54 101.677 202.703 99.7117 200.866 97.7458 199.48 95.2805 198.546 92.3157 197.611 89.3508 197.144 85.9026 197.144 81.9709 197.144 78.2327 197.627 74.873 198.594 71.8921 199.561 68.9111 200.954 66.3813 202.775 64.3027 204.596 62.2241 206.796 60.6289 209.374 59.5171 211.952 58.4053 214.836 57.8494 218.027 57.8494ZM157.277 49.0515 157.277 70.1277 165.398 70.1277C167.589 70.1277 169.483 69.8618 171.078 69.3301 172.673 68.7983 174.003 68.0571 175.066 67.1064 176.13 66.1558 176.911 65.0359 177.411 63.7468 177.91 62.4578 178.16 61.0559 178.16 59.5413 178.16 57.092 177.612 55.0215 176.516 53.3296 175.421 51.6377 173.584 50.4211 171.006 49.6799 170.2 49.4543 169.289 49.2932 168.274 49.1965 167.259 49.0998 165.93 49.0515 164.286 49.0515ZM152.056 42.1872 165.35 42.1872C166.929 42.1872 168.242 42.2275 169.289 42.3081 170.337 42.3887 171.279 42.4773 172.117 42.574 174.534 42.9929 176.669 43.6536 178.522 44.5559 180.375 45.4582 181.93 46.6023 183.187 47.988 184.444 49.3738 185.387 50.9609 186.015 52.7495 186.643 54.5381 186.958 56.512 186.958 58.6711 186.958 60.7659 186.676 62.6431 186.112 64.3027 185.548 65.9624 184.734 67.4287 183.671 68.7017 182.607 69.9746 181.334 71.0784 179.852 72.0129 178.369 72.9475 176.71 73.7371 174.873 74.3816 175.904 74.8328 176.839 75.4048 177.676 76.0976 178.514 76.7905 179.296 77.6204 180.021 78.5872 180.746 79.5539 181.431 80.6658 182.075 81.9226 182.72 83.1794 183.364 84.5974 184.009 86.1765L189.616 99.9534C190.068 101.114 190.358 101.927 190.486 102.395 190.615 102.862 190.68 103.224 190.68 103.482 190.68 103.74 190.632 103.966 190.535 104.159 190.438 104.352 190.229 104.513 189.906 104.642 189.584 104.771 189.133 104.868 188.553 104.932 187.973 104.997 187.199 105.029 186.233 105.029 185.395 105.029 184.71 104.997 184.178 104.932 183.646 104.868 183.219 104.763 182.897 104.618 182.575 104.473 182.325 104.272 182.148 104.014 181.971 103.756 181.818 103.434 181.689 103.047L175.936 88.3035C175.259 86.6277 174.559 85.0889 173.833 83.687 173.108 82.2851 172.246 81.0767 171.247 80.0615 170.248 79.0464 169.072 78.2568 167.718 77.6929 166.365 77.1289 164.737 76.8469 162.836 76.8469L157.277 76.8469 157.277 103.482C157.277 103.74 157.204 103.966 157.059 104.159 156.914 104.352 156.689 104.505 156.383 104.618 156.077 104.731 155.658 104.828 155.126 104.908 154.594 104.989 153.925 105.029 153.12 105.029 152.314 105.029 151.645 104.989 151.114 104.908 150.582 104.828 150.155 104.731 149.833 104.618 149.51 104.505 149.285 104.352 149.156 104.159 149.027 103.966 148.963 103.74 148.963 103.482L148.963 45.571C148.963 44.3142 149.293 43.436 149.954 42.9365 150.614 42.437 151.315 42.1872 152.056 42.1872ZM367.842 41.4138C369.647 41.4138 371.403 41.583 373.111 41.9214 374.819 42.2598 376.399 42.6868 377.849 43.2024 379.299 43.718 380.588 44.3142 381.716 44.991 382.844 45.6677 383.625 46.2236 384.06 46.6587 384.495 47.0937 384.777 47.4241 384.906 47.6497 385.035 47.8752 385.14 48.1411 385.221 48.4473 385.301 48.7534 385.366 49.116 385.414 49.5349 385.462 49.9538 385.486 50.4534 385.486 51.0334 385.486 51.678 385.454 52.2258 385.389 52.677 385.325 53.1282 385.228 53.5068 385.098 53.813 384.968 54.1191 384.814 54.3447 384.636 54.4897 384.458 54.6348 384.239 54.7073 383.98 54.7073 383.526 54.7073 382.895 54.3931 382.085 53.7646 381.274 53.1362 380.229 52.4433 378.95 51.686 377.67 50.9287 376.115 50.2358 374.284 49.6074 372.454 48.979 370.259 48.6648 367.7 48.6648 364.913 48.6648 362.378 49.2207 360.094 50.3325 357.81 51.4443 355.858 53.0798 354.238 55.239 352.618 57.3982 351.362 60.0327 350.471 63.1426 349.58 66.2524 349.135 69.8054 349.135 73.8015 349.135 77.7654 349.564 81.27 350.423 84.3154 351.281 87.3608 352.512 89.9067 354.116 91.9531 355.72 93.9995 357.688 95.5464 360.021 96.5937 362.353 97.6411 364.994 98.1648 367.942 98.1648 370.437 98.1648 372.615 97.8586 374.478 97.2463 376.341 96.634 377.928 95.9492 379.24 95.1919 380.552 94.4346 381.63 93.7497 382.472 93.1374 383.314 92.5251 383.979 92.219 384.465 92.219 384.692 92.219 384.886 92.2673 385.048 92.364 385.21 92.4607 385.339 92.646 385.437 92.9199 385.534 93.1938 385.607 93.5725 385.655 94.0559 385.704 94.5393 385.728 95.1516 385.728 95.8928 385.728 96.4084 385.712 96.8596 385.68 97.2463 385.648 97.633 385.591 97.9714 385.511 98.2615 385.43 98.5515 385.325 98.8093 385.196 99.0349 385.068 99.2605 384.842 99.5344 384.52 99.8567 384.197 100.179 383.521 100.67 382.489 101.331 381.458 101.992 380.177 102.636 378.646 103.265 377.116 103.893 375.359 104.425 373.377 104.86 371.395 105.295 369.228 105.512 366.876 105.512 362.815 105.512 359.149 104.836 355.878 103.482 352.607 102.129 349.82 100.131 347.516 97.488 345.211 94.8455 343.439 91.5825 342.198 87.6992 340.957 83.8159 340.337 79.3445 340.337 74.2849 340.337 69.0964 341.006 64.4719 342.343 60.4114 343.681 56.3508 345.558 52.9106 347.975 50.0908 350.392 47.271 353.284 45.1199 356.652 43.6374 360.019 42.155 363.75 41.4138 367.842 41.4138ZM400.008 37.4016C400.814 37.4016 401.474 37.4338 401.99 37.4983 402.505 37.5627 402.908 37.6594 403.198 37.7883 403.488 37.9172 403.698 38.0784 403.827 38.2717 403.956 38.4651 404.02 38.6907 404.02 38.9485L404.02 65.0037C406.308 62.5867 408.612 60.79 410.933 59.6138 413.253 58.4375 415.589 57.8494 417.942 57.8494 420.842 57.8494 423.284 58.3408 425.266 59.3237 427.247 60.3066 428.851 61.6199 430.075 63.2634 431.3 64.907 432.178 66.8325 432.71 69.04 433.242 71.2476 433.507 73.9143 433.507 77.0403L433.507 103.531C433.507 103.788 433.443 104.006 433.314 104.183 433.185 104.36 432.976 104.513 432.686 104.642 432.396 104.771 431.993 104.868 431.477 104.932 430.962 104.997 430.317 105.029 429.544 105.029 428.738 105.029 428.077 104.997 427.562 104.932 427.046 104.868 426.643 104.771 426.353 104.642 426.063 104.513 425.854 104.36 425.725 104.183 425.596 104.006 425.531 103.788 425.531 103.531L425.531 78.0554C425.531 75.574 425.338 73.5759 424.951 72.0613 424.565 70.5466 424.001 69.2414 423.259 68.1457 422.518 67.05 421.559 66.2122 420.383 65.6321 419.207 65.052 417.845 64.762 416.298 64.762 414.3 64.762 412.302 65.4709 410.304 66.8889 408.306 68.3069 406.212 70.3855 404.02 73.1247L404.02 103.531C404.02 103.788 403.956 104.006 403.827 104.183 403.698 104.36 403.488 104.513 403.198 104.642 402.908 104.771 402.505 104.868 401.99 104.932 401.474 104.997 400.814 105.029 400.008 105.029 399.234 105.029 398.59 104.997 398.074 104.932 397.559 104.868 397.148 104.771 396.842 104.642 396.536 104.513 396.326 104.36 396.213 104.183 396.1 104.006 396.044 103.788 396.044 103.531L396.044 38.9485C396.044 38.6907 396.1 38.4651 396.213 38.2717 396.326 38.0784 396.536 37.9172 396.842 37.7883 397.148 37.6594 397.559 37.5627 398.074 37.4983 398.59 37.4338 399.234 37.4016 400.008 37.4016ZM513.141 37.0632C514.269 37.0632 515.365 37.168 516.428 37.3774 517.492 37.5869 518.314 37.8125 518.894 38.0542 519.474 38.2959 519.86 38.5134 520.054 38.7068 520.247 38.9001 520.408 39.1499 520.537 39.456 520.666 39.7622 520.755 40.1328 520.803 40.5679 520.851 41.0029 520.876 41.5266 520.876 42.1389 520.876 42.7512 520.843 43.2427 520.779 43.6133 520.714 43.9839 520.642 44.282 520.561 44.5076 520.481 44.7331 520.376 44.8862 520.247 44.9668 520.118 45.0474 519.957 45.0876 519.764 45.0876 519.538 45.0876 519.256 45.0151 518.918 44.8701 518.579 44.7251 518.169 44.564 517.685 44.3867 517.202 44.2095 516.63 44.0483 515.969 43.9033 515.308 43.7583 514.543 43.6858 513.673 43.6858 512.481 43.6858 511.465 43.8791 510.628 44.2659 509.79 44.6526 509.113 45.2568 508.597 46.0786 508.082 46.9004 507.711 47.9639 507.485 49.269 507.26 50.5742 507.147 52.1614 507.147 54.0305L507.147 58.7678 516.863 58.7678C517.121 58.7678 517.339 58.8242 517.516 58.937 517.693 59.0498 517.854 59.2432 517.999 59.5171 518.144 59.791 518.257 60.1374 518.338 60.5564 518.418 60.9753 518.459 61.491 518.459 62.1033 518.459 63.2634 518.314 64.1013 518.024 64.6169 517.734 65.1326 517.347 65.3904 516.863 65.3904L507.147 65.3904 507.147 103.531C507.147 103.788 507.083 104.006 506.954 104.183 506.825 104.36 506.607 104.513 506.301 104.642 505.995 104.771 505.584 104.868 505.068 104.932 504.553 104.997 503.908 105.029 503.135 105.029 502.361 105.029 501.717 104.997 501.201 104.932 500.686 104.868 500.275 104.771 499.969 104.642 499.662 104.513 499.445 104.36 499.316 104.183 499.187 104.006 499.123 103.788 499.123 103.531L499.123 65.3904 492.984 65.3904C492.468 65.3904 492.081 65.1326 491.823 64.6169 491.566 64.1013 491.437 63.2634 491.437 62.1033 491.437 61.491 491.469 60.9753 491.533 60.5564 491.598 60.1374 491.694 59.791 491.823 59.5171 491.952 59.2432 492.113 59.0498 492.307 58.937 492.5 58.8242 492.726 58.7678 492.984 58.7678L499.123 58.7678 499.123 54.2722C499.123 51.2429 499.405 48.6406 499.969 46.4653 500.533 44.29 501.395 42.5095 502.555 41.1238 503.715 39.738 505.173 38.7148 506.93 38.0542 508.686 37.3935 510.756 37.0632 513.141 37.0632Z" stroke="#000000" stroke-linejoin="round" stroke-miterlimit="10" fill="#F2F2F2" fill-rule="evenodd"/><text fill="#000000" fill-opacity="0" font-family="Arial,Arial_MSFontService,sans-serif" font-size="68.5942" x="148.963" y="97.0832">RecoChef</text><g clip-path="url(#clip1)"><g clip-path="url(#clip2)"><g clip-path="url(#clip3)"><path d="M104.25 39.8182C103.217 39.8182 102.138 39.9549 101.017 40.1631 97.2624 35.7868 91.705 33 85.5001 33 79.2952 33 73.7376 35.7868 69.9835 40.1629 68.8624 39.9549 67.7829 39.8181 66.7501 39.8181 56.4111 39.8182 48 48.2294 48 58.5682 48 65.6527 51.995 72.093 58.2672 75.2775L58.234 101.037C58.2324 102.896 58.9547 104.644 60.2681 105.959 61.5831 107.276 63.3293 108 65.1887 108L105.818 108C109.653 108 112.773 104.881 112.773 101.045L112.773 75.2524C119.022 72.0597 123 65.6293 123 58.5682 123 48.2294 114.589 39.8182 104.25 39.8182Z" fill="#303C42"/><path d="M105.818 104.591 65.1887 104.591C64.2416 104.591 63.351 104.221 62.6801 103.551 62.0109 102.88 61.6414 101.989 61.643 101.04L61.6518 94.3637 109.364 94.3637 109.364 101.045C109.364 103 107.772 104.591 105.818 104.591Z" fill="#E6E6E6"/><path d="M65.0521 101.04 65.0596 94.3637 61.6518 94.3637 61.643 101.04C61.6414 101.989 62.0109 102.88 62.6801 103.55 63.351 104.221 64.2416 104.591 65.1887 104.591L68.0912 104.591C67.2795 104.591 66.516 104.221 65.9412 103.55 65.3674 102.88 65.0506 101.989 65.0521 101.04Z" fill="#FFFFFF" fill-opacity="0.2"/><path d="M105.955 94.3637 105.955 101.045C105.955 103 104.591 104.591 102.916 104.591L105.818 104.591C107.772 104.591 109.364 103 109.364 101.045L109.364 94.3637 105.955 94.3637Z" fill="#000000" fill-opacity="0.1"/><path d="M110.419 72.5991C110.329 72.6357 110.244 72.679 110.164 72.7306 109.95 72.8637 109.773 73.0403 109.642 73.2432 109.508 73.4446 109.418 73.6777 109.382 73.9273 109.367 74.0223 109.362 74.1172 109.364 74.2137L109.364 90.9545 61.6561 90.9545 61.678 74.2369C61.6796 74.1437 61.6747 74.0488 61.6614 73.9572 61.6248 73.6991 61.5299 73.4594 61.3917 73.2514 61.2617 73.0566 61.092 72.8869 60.8856 72.757 60.8007 72.7037 60.7108 72.6571 60.6176 72.6187 55.0229 70.1722 51.409 64.6622 51.409 58.5682 51.409 50.1086 58.2906 43.2273 66.75 43.2273 67.0806 43.2273 67.4296 43.2672 67.772 43.2942 66.0475 46.2916 65.0454 49.755 65.0454 53.4546 65.0454 54.3967 65.8078 55.1592 66.75 55.1592 67.6921 55.1592 68.4546 54.3967 68.4546 53.4546 68.4546 44.0562 76.1017 36.409 85.5001 36.409 94.8985 36.409 102.545 44.0563 102.545 53.4546 102.545 54.3967 103.308 55.1592 104.25 55.1592 105.192 55.1592 105.955 54.3967 105.955 53.4546 105.955 49.755 104.953 46.2916 103.228 43.2942 103.57 43.2672 103.919 43.2273 104.25 43.2273 112.71 43.2273 119.591 50.1088 119.591 58.5682 119.591 64.6406 115.992 70.1439 110.419 72.5991Z" fill="#F2F2F2"/><path d="M85.5001 38.5398C93.3257 38.5398 99.9038 43.4983 102.227 50.3018 100.74 42.408 93.8188 36.409 85.5001 36.409 77.1813 36.409 70.2597 42.4078 68.7734 50.3018 71.0962 43.4981 77.6743 38.5398 85.5001 38.5398Z" fill="#FFFFFF" fill-opacity="0.2"/><path d="M104.25 43.2273C103.919 43.2273 103.57 43.2672 103.228 43.2942 103.24 43.3161 103.249 43.3403 103.262 43.362 110.184 44.0501 115.649 50.5654 115.649 58.568 115.649 64.6405 112.467 70.1437 107.538 72.5989 107.459 72.6355 107.383 72.6788 107.313 72.7304 107.123 72.8635 106.967 73.0401 106.85 73.2431 106.733 73.4444 106.653 73.6776 106.621 73.9272 106.607 74.0221 106.603 74.117 106.604 74.2135L106.604 90.9543 109.364 90.9543 109.364 74.2135C109.362 74.117 109.367 74.0221 109.382 73.9272 109.419 73.6774 109.509 73.4444 109.642 73.2431 109.773 73.04 109.95 72.8635 110.164 72.7304 110.244 72.6788 110.329 72.6355 110.419 72.5989 115.992 70.1439 119.591 64.6406 119.591 58.5682 119.591 50.1088 112.71 43.2273 104.25 43.2273Z" fill="#000000" fill-opacity="0.1"/><path d="M64.4177 73.9574C64.3852 73.6993 64.3013 73.4596 64.1792 73.2515 64.0643 73.0567 63.9141 72.887 63.7316 72.7571 63.6565 72.7039 63.5771 72.6572 63.4946 72.6189 58.5469 70.1722 55.3509 64.6622 55.3509 58.5682 55.3509 50.5655 60.8164 44.0503 67.7386 43.3622 67.7511 43.3403 67.7597 43.3161 67.7722 43.2944 67.4296 43.2672 67.0806 43.2273 66.75 43.2273 58.2904 43.2273 51.409 50.1088 51.409 58.5682 51.409 64.6622 55.0229 70.1722 60.6176 72.619 60.7108 72.6574 60.8007 72.7039 60.8856 72.7573 61.092 72.8872 61.2617 73.0569 61.3917 73.2517 61.5299 73.4598 61.6247 73.6995 61.6614 73.9575 61.6747 74.0491 61.6798 74.144 61.678 74.2372L61.6561 90.9548 64.4132 90.9548 64.4325 74.2372C64.434 74.1439 64.4296 74.049 64.4177 73.9574Z" fill="#FFFFFF" fill-opacity="0.2"/><path d="M68.4546 68.7955C68.4546 67.8533 67.6921 67.0909 66.75 67.0909 65.8078 67.0909 65.0454 67.8533 65.0454 68.7955 65.0454 73.2715 69.9826 79.4173 70.5452 80.1048 70.8832 80.5143 71.3725 80.7274 71.8652 80.7274 72.2447 80.7274 72.6276 80.6008 72.9454 80.3411 73.6729 79.7435 73.7777 78.6699 73.1818 77.9408 71.3543 75.7136 68.4546 71.2625 68.4546 68.7955Z" fill="#303C42"/><path d="M104.25 67.0909C103.308 67.0909 102.545 67.8533 102.545 68.7955 102.545 71.254 99.6457 75.7102 97.818 77.9425 97.2221 78.6699 97.3286 79.7436 98.0561 80.3411 98.3724 80.6008 98.7553 80.7274 99.1364 80.7274 99.6291 80.7274 100.117 80.5143 100.455 80.1048 101.017 79.4173 105.955 73.2717 105.955 68.7955 105.955 67.8533 105.192 67.0909 104.25 67.0909Z" fill="#303C42"/><path d="M85.5001 67.0909C84.5579 67.0909 83.7955 67.8533 83.7955 68.7955L83.7955 79.0228C83.7955 79.965 84.5579 80.7274 85.5001 80.7274 86.4423 80.7274 87.2047 79.965 87.2047 79.0228L87.2047 68.7955C87.2045 67.8533 86.4423 67.0909 85.5001 67.0909Z" fill="#303C42"/><path d="M104.25 39.8182C103.217 39.8182 102.138 39.9549 101.017 40.1631 97.2624 35.7868 91.705 33 85.5001 33 79.2952 33 73.7376 35.7868 69.9835 40.1629 68.8624 39.9549 67.7829 39.8181 66.7501 39.8181 56.4111 39.8182 48 48.2294 48 58.5682 48 65.6527 51.995 72.093 58.2672 75.2775L58.234 101.037C58.2324 102.896 58.9547 104.644 60.2681 105.959 61.5831 107.276 63.3293 108 65.1887 108L105.818 108C109.653 108 112.773 104.881 112.773 101.045L112.773 75.2524C119.022 72.0597 123 65.6293 123 58.5682 123 48.2294 114.589 39.8182 104.25 39.8182Z" fill="url(#fill4)"/></g></g></g></g></svg>